<svg id="visual" viewBox="0 0 900 600" width="900" height="600" xmlns="http://www.w3.org/2000/svg" xmlns:xlink="http://www.w3.org/1999/xlink" version="1.1"><path d="M0 433L18.8 429.3C37.7 425.7 75.3 418.3 112.8 417C150.3 415.7 187.7 420.3 225.2 420.7C262.7 421 300.3 417 337.8 419.2C375.3 421.3 412.7 429.7 450.2 442C487.7 454.3 525.3 470.7 562.8 466.5C600.3 462.3 637.7 437.7 675.2 431.8C712.7 426 750.3 439 787.8 450.5C825.3 462 862.7 472 881.3 477L900 482L900 601L881.3 601C862.7 601 825.3 601 787.8 601C750.3 601 712.7 601 675.2 601C637.7 601 600.3 601 562.8 601C525.3 601 487.7 601 450.2 601C412.7 601 375.3 601 337.8 601C300.3 601 262.7 601 225.2 601C187.7 601 150.3 601 112.8 601C75.3 601 37.7 601 18.8 601L0 601Z" fill="#303030"></path><path d="M0 519L18.8 515.7C37.7 512.3 75.3 505.7 112.8 506.5C150.3 507.3 187.7 515.7 225.2 516.8C262.7 518 300.3 512 337.8 501C375.3 490 412.7 474 450.2 471.3C487.7 468.7 525.3 479.3 562.8 487.7C600.3 496 637.7 502 675.2 498.8C712.7 495.7 750.3 483.3 787.8 477.3C825.3 471.3 862.7 471.7 881.3 471.8L900 472L900 601L881.3 601C862.7 601 825.3 601 787.8 601C750.3 601 712.7 601 675.2 601C637.7 601 600.3 601 562.8 601C525.3 601 487.7 601 450.2 601C412.7 601 375.3 601 337.8 601C300.3 601 262.7 601 225.2 601C187.7 601 150.3 601 112.8 601C75.3 601 37.7 601 18.8 601L0 601Z" fill="#272727"></path><path d="M0 550L18.8 551.8C37.7 553.7 75.3 557.3 112.8 558.2C150.3 559 187.7 557 225.2 556.7C262.7 556.3 300.3 557.7 337.8 556C375.3 554.3 412.7 549.7 450.2 541.8C487.7 534 525.3 523 562.8 526C600.3 529 637.7 546 675.2 551.5C712.7 557 750.3 551 787.8 549.5C825.3 548 862.7 551 881.3 552.5L900 554L900 601L881.3 601C862.7 601 825.3 601 787.8 601C750.3 601 712.7 601 675.2 601C637.7 601 600.3 601 562.8 601C525.3 601 487.7 601 450.2 601C412.7 601 375.3 601 337.8 601C300.3 601 262.7 601 225.2 601C187.7 601 150.3 601 112.8 601C75.3 601 37.7 601 18.8 601L0 601Z" fill="#1e1e1e"></path></svg>