<svg id="visual" viewBox="0 0 900 600" width="900" height="600" xmlns="http://www.w3.org/2000/svg" xmlns:xlink="http://www.w3.org/1999/xlink" version="1.1"><rect x="0" y="0" width="900" height="600" fill="#f2f2f2"></rect><path d="M0 455L21.5 443.8C43 432.7 86 410.3 128.8 402.5C171.7 394.7 214.3 401.3 257.2 406.2C300 411 343 414 385.8 421.7C428.7 429.3 471.3 441.7 514.2 428.3C557 415 600 376 642.8 353.5C685.7 331 728.3 325 771.2 328.8C814 332.7 857 346.3 878.5 353.2L900 360L900 601L878.5 601C857 601 814 601 771.2 601C728.3 601 685.7 601 642.8 601C600 601 557 601 514.2 601C471.3 601 428.7 601 385.8 601C343 601 300 601 257.2 601C214.3 601 171.7 601 128.8 601C86 601 43 601 21.5 601L0 601Z" fill="#f34b8c"></path><path d="M0 500L21.5 498.7C43 497.3 86 494.7 128.8 500.2C171.7 505.7 214.3 519.3 257.2 514.2C300 509 343 485 385.8 475.7C428.7 466.3 471.3 471.7 514.2 470.7C557 469.7 600 462.3 642.8 459.8C685.7 457.3 728.3 459.7 771.2 457C814 454.3 857 446.7 878.5 442.8L900 439L900 601L878.5 601C857 601 814 601 771.2 601C728.3 601 685.7 601 642.8 601C600 601 557 601 514.2 601C471.3 601 428.7 601 385.8 601C343 601 300 601 257.2 601C214.3 601 171.7 601 128.8 601C86 601 43 601 21.5 601L0 601Z" fill="#874285"></path></svg>