<svg id="visual" viewBox="0 0 900 600" width="900" height="600" xmlns="http://www.w3.org/2000/svg" xmlns:xlink="http://www.w3.org/1999/xlink" version="1.1"><rect x="0" y="0" width="900" height="600" fill="#fac252"></rect><path d="M0 232L37.5 258.7C75 285.3 150 338.7 225 334.3C300 330 375 268 450 270.7C525 273.3 600 340.7 675 359.2C750 377.7 825 347.3 862.5 332.2L900 317L900 601L862.5 601C825 601 750 601 675 601C600 601 525 601 450 601C375 601 300 601 225 601C150 601 75 601 37.5 601L0 601Z" fill="#ff758e" stroke-linecap="round" stroke-linejoin="miter"></path></svg>